# xmcd
#
# Track frame offsets:
#	150
#	13682
#	27107
#	42040
#	53465
#	64545
#	76080
#	87917
#	103235
#	117337
#	134410
#	150585
#	167455
#	182742
#	196992
#
# Disc length: 2900 seconds
#
# Revision: 1
# Processed by: cddbd v1.5.1PL0 Copyright (c) Steve Scherf et al.
# Submitted via: CDex 1.50Beta5
#
DISCID=b00b520f
DTITLE=大杉久美子 - 世界名作劇場主題歌集〜フランダースの犬〜
DYEAR=1989
DGENRE=Soundtrack
TTITLE0=大杉久美子/よあけのみち
TTITLE1=大杉久美子/草原のマルコ
TTITLE2=大杉久美子/ロックリバーへ
TTITLE3=大杉久美子/ペリーヌものがたり
TTITLE4=大和田りつ子/きこえるかしら
TTITLE5=大杉久美子/誰よりも遠くへ
TTITLE6=大杉久美子/裸足のフローネ
TTITLE7=大杉久美子/虹になりたい
TTITLE8=松木里江/アンネットの青い空
TTITLE9=山野さと子/Love with you
TTITLE10=山野さと子/花のささやき
TTITLE11=堀江美都子/し・あ・わ・せ・カーニバル
TTITLE12=橋本潮/若草の招待状
TTITLE13=橋本潮/ぼくらのセディ
TTITLE14=山野さと子/もう一度ピーターパン
EXTD=
EXTT0=
EXTT1=
EXTT2=
EXTT3=
EXTT4=
EXTT5=
EXTT6=
EXTT7=
EXTT8=
EXTT9=
EXTT10=
EXTT11=
EXTT12=
EXTT13=
EXTT14=
PLAYORDER=
